HIERARCHY
ROOT Hips
{
	OFFSET 0.000000 0.000000 0.000000
	CHANNELS 6 Xposition Yposition Zposition Xrotation Yrotation Zrotation
	JOINT LeftUpLeg_virtual
	{
		OFFSET 0.000000 0.000000 0.000000
		CHANNELS 3 Xrotation Yrotation Zrotation
		JOINT LeftUpLeg
		{
			OFFSET 15.427100 -6.655098 0.678600
			CHANNELS 3 Xrotation Yrotation Zrotation
			JOINT LeftLeg
			{
				OFFSET 4.081073 -39.591068 13.024000
				CHANNELS 3 Xrotation Yrotation Zrotation
				JOINT LeftFoot
				{
					OFFSET -4.081074 -37.707932 -15.979700
					CHANNELS 3 Xrotation Yrotation Zrotation
					JOINT LeftToeBase
					{
						OFFSET 5.346399 -15.068900 20.645000
						CHANNELS 3 Xrotation Yrotation Zrotation
						JOINT LeftToe_End
						{
							OFFSET 2.754700 0.931300 11.300900
							CHANNELS 3 Xrotation Yrotation Zrotation
							End Site
							{
								OFFSET 0 0 0
							}
						}
					}
				}
			}
		}
	}
	JOINT RightUpLeg_virtual
	{
		OFFSET 0.000000 0.000000 0.000000
		CHANNELS 3 Xrotation Yrotation Zrotation
		JOINT RightUpLeg
		{
			OFFSET -15.569500 -6.655098 0.678600
			CHANNELS 3 Xrotation Yrotation Zrotation
			JOINT RightLeg
			{
				OFFSET -4.081825 -39.591045 13.023800
				CHANNELS 3 Xrotation Yrotation Zrotation
				JOINT RightFoot
				{
					OFFSET 4.081824 -37.707954 -15.979600
					CHANNELS 3 Xrotation Yrotation Zrotation
					JOINT RightToeBase
					{
						OFFSET -5.346400 -15.068900 20.645000
						CHANNELS 3 Xrotation Yrotation Zrotation
						JOINT RightToe_End
						{
							OFFSET -2.754700 0.931300 11.300900
							CHANNELS 3 Xrotation Yrotation Zrotation
							End Site
							{
								OFFSET 0 0 0
							}
						}
					}
				}
			}
		}
	}
	JOINT Spine_virtual
	{
		OFFSET 0.000000 0.000000 0.000000
		CHANNELS 3 Xrotation Yrotation Zrotation
		JOINT Spine
		{
			OFFSET -0.279200 12.230698 -2.892100
			CHANNELS 3 Xrotation Yrotation Zrotation
			JOINT Spine1
			{
				OFFSET -0.232667 10.192268 -1.242267
				CHANNELS 3 Xrotation Yrotation Zrotation
				JOINT Spine1_split
				{
					OFFSET -0.232667 10.192268 -1.242267
					CHANNELS 3 Xrotation Yrotation Zrotation
					JOINT Spine2
					{
						OFFSET -0.232667 10.192268 -1.242267
						CHANNELS 3 Xrotation Yrotation Zrotation
						JOINT Neck_virtual
						{
							OFFSET 0.000000 0.000000 0.000000
							CHANNELS 3 Xrotation Yrotation Zrotation
							JOINT Neck
							{
								OFFSET -0.418800 17.814194 8.416900
								CHANNELS 3 Xrotation Yrotation Zrotation
								JOINT Head
								{
									OFFSET 0.000000 7.031097 3.806800
									CHANNELS 3 Xrotation Yrotation Zrotation
									JOINT HeadTop_End
									{
										OFFSET 0.000000 24.646606 12.978600
										CHANNELS 3 Xrotation Yrotation Zrotation
										End Site
										{
											OFFSET 0 0 0
										}
									}
								}
							}
						}
						JOINT LeftShoulder_virtual
						{
							OFFSET 0.000000 0.000000 0.000000
							CHANNELS 3 Xrotation Yrotation Zrotation
							JOINT LeftShoulder
							{
								OFFSET 8.476499 7.247704 -3.868750
								CHANNELS 3 Xrotation Yrotation Zrotation
								JOINT LeftShoulder_split
								{
									OFFSET 8.476499 7.247704 -3.868750
									CHANNELS 3 Xrotation Yrotation Zrotation
									JOINT LeftArm
									{
										OFFSET 9.308998 -2.777710 0.208600
										CHANNELS 3 Xrotation Yrotation Zrotation
										JOINT LeftForeArm
										{
											OFFSET 29.972298 0.000000 0.000000
											CHANNELS 3 Xrotation Yrotation Zrotation
											JOINT LeftHand
											{
												OFFSET 26.026505 0.000000 0.000000
												CHANNELS 3 Xrotation Yrotation Zrotation
												End Site
												{
													OFFSET 0 0 0
												}
											}
										}
									}
								}
							}
						}
						JOINT RightShoulder_virtual
						{
							OFFSET 0.000000 0.000000 0.000000
							CHANNELS 3 Xrotation Yrotation Zrotation
							JOINT RightShoulder
							{
								OFFSET -7.570500 7.247704 -3.868750
								CHANNELS 3 Xrotation Yrotation Zrotation
								JOINT RightShoulder_split
								{
									OFFSET -7.570500 7.247704 -3.868750
									CHANNELS 3 Xrotation Yrotation Zrotation
									JOINT RightArm
									{
										OFFSET -9.308998 -2.777710 0.208500
										CHANNELS 3 Xrotation Yrotation Zrotation
										JOINT RightForeArm
										{
											OFFSET -29.972300 0.000000 0.000000
											CHANNELS 3 Xrotation Yrotation Zrotation
											JOINT RightHand
											{
												OFFSET -26.026505 0.000000 0.000000
												CHANNELS 3 Xrotation Yrotation Zrotation
												End Site
												{
													OFFSET 0 0 0
												}
											}
										}
									}
								}
							}
						}
					}
				}
			}
		}
	}
}
MOTION
Frames: 11
Frame Time: 0.03333333
6.319890 75.368103 -9.123159 0.000000 0.000000 0.000000 0.468234 41.543895 -4.236502 -11.327276 2.663789 15.630403 42.247029 -2.813799 6.805475 -21.200429 21.578029 -23.062808 -5.850647 -9.913859 10.059118 0.000000 0.000000 0.000000 2.454733 41.703639 -5.353059 -38.748787 6.489169 -12.435829 40.916515 14.920074 -12.779493 6.233021 -17.572680 32.730294 -3.573587 9.055443 -16.695482 0.000000 0.000000 0.000000 -1.265489 49.846181 -2.497853 5.037389 -4.507387 -0.494238 3.596285 -1.326835 0.462088 0.157396 -0.304604 -0.102037 0.000000 0.000000 0.000000 2.866689 0.260717 0.175966 -3.454013 4.414281 3.316761 -21.886096 -8.683428 -20.663368 0.000000 0.000000 0.000000 1.695330 -1.214710 -0.417304 4.527801 -12.340153 -3.886597 -0.761956 -0.824259 -0.855813 12.315317 -44.618894 -39.121158 172.402717 -64.935517 175.458612 0.000000 0.000000 0.000000 3.117432 -0.435572 0.417729 1.344875 -4.817208 9.769269 -7.704612 8.704891 7.177812 -25.301579 -10.753787 43.358085 -160.838101 59.145251 165.018559 0.000000 0.000000 0.000000 
5.950995 77.829132 -9.262960 0.000000 0.000000 0.000000 0.506836 40.849668 -4.201368 -11.751512 1.439451 16.291611 41.977315 -3.360967 5.871025 -13.831293 19.932930 -24.238291 -4.499848 -9.657315 9.611641 0.000000 0.000000 0.000000 2.585851 41.316572 -4.980748 -37.532853 5.250062 -13.361079 37.031476 15.949977 -11.565389 7.979939 -14.218516 35.887651 -9.402385 10.317570 -17.183868 0.000000 0.000000 0.000000 -0.801520 47.476191 -2.968906 4.091251 -4.717212 -0.074340 3.081728 -1.391370 0.585132 -0.046535 -0.074500 -0.119121 0.000000 0.000000 0.000000 2.762872 0.183679 0.234087 -3.276561 4.445666 3.310765 -21.780710 -8.749657 -20.978709 0.000000 0.000000 0.000000 1.668196 -1.329423 -0.195736 4.551986 -12.606723 -2.920540 -1.591797 -1.166901 -0.453805 8.601887 -44.791547 -39.315009 172.878781 -64.291539 176.244863 0.000000 0.000000 0.000000 3.027779 -0.530442 0.496998 1.100632 -4.703801 8.540480 -6.747107 8.042658 5.588475 -27.819678 -9.897386 42.946051 -163.087186 56.458617 166.580200 0.000000 0.000000 0.000000 
5.979406 82.734177 -9.812555 0.000000 0.000000 0.000000 0.738398 39.912504 -4.090394 -12.259544 -0.611366 15.798441 40.614665 -3.645969 5.324048 -3.895922 15.159627 -24.366594 -4.908370 -9.361548 6.237650 0.000000 0.000000 0.000000 3.041562 40.058650 -4.609174 -34.601277 3.840501 -13.219374 30.479941 16.205513 -9.266622 8.081789 -11.402670 34.840290 -9.012538 10.357545 -16.387113 0.000000 0.000000 0.000000 0.686522 44.188175 -4.072877 2.730928 -4.884238 0.348770 2.764019 -1.589512 0.784882 -0.117639 0.225928 -0.053154 0.000000 0.000000 0.000000 2.606601 0.027342 0.367974 -2.329409 4.648197 3.295895 -21.895705 -7.698714 -20.463520 0.000000 0.000000 0.000000 1.830006 -1.499259 0.121299 4.576857 -12.465470 -1.869249 -1.331683 -1.375187 -1.390039 3.137965 -44.156227 -40.075937 173.449539 -63.177385 176.966445 0.000000 0.000000 0.000000 3.157728 -0.698298 0.626191 0.848963 -4.232398 6.717083 -5.331461 5.759176 5.322812 -30.245645 -6.644764 41.434827 -165.048926 54.524540 167.480541 0.000000 0.000000 0.000000 
6.428569 88.493431 -10.544786 0.000000 0.000000 0.000000 0.857697 38.171888 -3.663226 -12.907516 -2.480964 14.715395 39.504779 -3.733287 5.405238 6.039214 8.593425 -22.738572 -10.563740 -9.100813 1.802122 0.000000 0.000000 0.000000 2.965829 37.358645 -3.901150 -31.254976 2.230330 -12.365047 24.273621 15.329755 -6.628500 7.213528 -9.997836 30.242643 -3.866737 9.479787 -14.809747 0.000000 0.000000 0.000000 2.174988 40.517895 -4.659947 1.357744 -4.956273 0.588904 2.694181 -1.894298 1.014798 -0.000601 0.457481 0.019010 0.000000 0.000000 0.000000 2.459663 -0.176862 0.540603 -0.871779 4.972896 3.291438 -22.073334 -5.601304 -19.205153 0.000000 0.000000 0.000000 2.107393 -1.699105 0.472159 4.543710 -11.992684 -0.901505 -0.370756 -1.216966 -2.706697 -3.206015 -42.519809 -41.788463 173.958785 -62.039974 177.406159 0.000000 0.000000 0.000000 3.432566 -0.888600 0.807931 0.689888 -3.264147 4.788758 -3.862230 3.617660 6.158116 -31.645277 -1.972592 39.884862 -166.667817 53.808760 167.907305 0.000000 0.000000 0.000000 
7.099405 93.881714 -11.062307 0.000000 0.000000 0.000000 0.700667 35.606336 -2.689745 -13.065984 -3.290424 12.852579 38.760682 -4.161817 6.268402 13.522285 2.292793 -20.421671 -20.332490 -8.222044 -2.042253 0.000000 0.000000 0.000000 2.102855 33.089794 -2.699843 -28.858280 0.663297 -11.767594 21.361871 14.122320 -4.123226 6.741165 -9.286872 25.063258 -0.675045 8.789465 -12.913855 0.000000 0.000000 0.000000 2.845135 37.155334 -4.068440 0.402377 -4.816269 0.514567 2.845262 -2.218680 1.221696 0.102218 0.546909 0.003937 0.000000 0.000000 0.000000 2.352409 -0.396383 0.763873 0.649455 5.346562 3.272497 -22.119656 -2.618885 -17.346497 0.000000 0.000000 0.000000 2.376017 -1.905535 0.788820 4.465255 -11.212631 -0.008937 0.762068 -0.621500 -3.385861 -9.232194 -40.064394 -44.071809 174.319569 -61.474680 177.507205 0.000000 0.000000 0.000000 3.687027 -1.060221 1.018646 0.694421 -1.671173 3.216793 -2.786589 2.577174 6.912403 -31.910989 2.766204 38.968770 -167.884301 54.426895 168.017640 0.000000 0.000000 0.000000 
7.814661 97.962135 -11.113871 0.000000 0.000000 0.000000 0.202713 31.978713 -1.222304 -12.983195 -2.053838 10.274240 38.502466 -3.792505 6.783681 15.697593 -0.694930 -17.251265 -26.287407 -6.476059 -5.425443 0.000000 0.000000 0.000000 0.850877 28.361307 -1.157628 -27.504000 -0.516376 -11.940423 22.698293 13.467572 -2.206049 7.447559 -8.637286 21.424137 -2.477745 8.573656 -11.196188 0.000000 0.000000 0.000000 2.376577 34.360059 -2.378846 0.153710 -4.399275 0.134170 3.110868 -2.434803 1.359191 0.123153 0.479864 -0.086755 0.000000 0.000000 0.000000 2.233172 -0.597446 0.968595 1.807730 5.738528 3.234571 -21.933105 0.938234 -15.124902 0.000000 0.000000 0.000000 2.602833 -2.091723 0.987848 4.401150 -10.297723 0.684736 1.772283 -0.169192 -3.159925 -13.516734 -36.962160 -46.400006 174.663264 -61.741072 177.454312 0.000000 0.000000 0.000000 3.828785 -1.196340 1.215830 0.817554 0.553385 2.318347 -2.394036 2.185259 7.410088 -31.187986 6.286997 39.218284 -168.799779 56.165602 168.081899 0.000000 0.000000 0.000000 
8.327440 100.565956 -11.466570 0.000000 0.000000 0.000000 -0.563098 27.039455 0.590108 -13.435401 0.767312 8.051728 38.043437 -2.280001 6.791042 12.737174 0.306268 -14.163635 -24.633484 -4.814203 -7.209472 0.000000 0.000000 0.000000 -0.080432 24.171317 0.394027 -26.111825 -1.286644 -12.694846 26.440105 13.201537 -0.911083 7.891221 -8.545018 19.269021 -6.883511 8.338467 -9.522251 0.000000 0.000000 0.000000 1.187574 31.406122 -0.249490 0.466286 -3.663655 -0.416702 3.335409 -2.503676 1.401758 0.091633 0.321527 -0.189656 0.000000 0.000000 0.000000 2.103041 -0.736828 1.079646 2.534771 6.149670 3.151540 -21.441256 4.704234 -12.822368 0.000000 0.000000 0.000000 2.719604 -2.202441 1.027589 4.406310 -9.223904 1.198489 2.147773 0.209772 -2.404660 -15.459957 -33.581895 -48.395510 175.217302 -62.984644 177.522559 0.000000 0.000000 0.000000 3.763786 -1.279356 1.283835 0.942949 3.066119 2.098092 -2.430338 2.614504 7.270319 -30.035801 7.764864 40.660280 -169.490051 58.578100 168.219049 0.000000 0.000000 0.000000 
8.601814 101.701263 -12.069464 0.000000 0.000000 0.000000 -1.144556 21.587573 2.241649 -14.934839 3.477787 6.830227 36.815136 -0.582165 6.283763 8.144917 3.683081 -12.751975 -13.816191 -3.765529 -7.920123 0.000000 0.000000 0.000000 -0.294850 20.556380 1.700938 -23.703109 -1.810312 -13.891112 30.131803 12.835882 -0.123223 6.561207 -9.460815 17.557604 -10.935892 7.697536 -7.719600 0.000000 0.000000 0.000000 -0.103359 27.909364 1.532202 0.935857 -2.627972 -0.877991 3.381664 -2.427149 1.296297 0.022855 0.197958 -0.163961 0.000000 0.000000 0.000000 1.950265 -0.776758 1.098051 2.762287 6.564442 2.994000 -20.674843 8.210497 -10.628727 0.000000 0.000000 0.000000 2.628919 -2.216569 0.860910 4.460736 -8.086869 1.447147 1.957608 -0.104560 -1.386697 -14.897626 -30.340008 -49.811658 176.136481 -64.729730 177.892004 0.000000 0.000000 0.000000 3.545423 -1.269126 1.176630 0.939859 5.575482 2.340507 -2.512902 2.896341 6.740410 -28.821681 7.557107 42.887963 -169.854415 60.882708 168.375761 0.000000 0.000000 0.000000 
8.853312 101.410690 -12.218859 0.000000 0.000000 0.000000 -1.174221 15.948051 3.444296 -18.539521 5.009210 7.766116 35.209905 -0.293901 5.230939 6.320022 6.666400 -15.139983 0.401652 -3.165830 -7.632047 0.000000 0.000000 0.000000 0.004615 16.834857 2.790791 -20.536448 -2.256318 -15.539158 32.554925 12.216004 0.358051 4.672794 -11.207090 16.414661 -13.853131 6.741824 -5.868349 0.000000 0.000000 0.000000 -1.231097 23.706132 2.750628 1.228337 -1.407946 -1.021438 3.262879 -2.252253 1.055448 0.006112 -0.003006 -0.076253 0.000000 0.000000 0.000000 1.800584 -0.704648 0.999984 2.545076 6.994990 2.791480 -19.784900 10.983654 -8.625582 0.000000 0.000000 0.000000 2.324772 -2.109642 0.500659 4.471876 -7.130042 1.254137 1.186843 -1.248066 -0.549342 -12.722146 -27.046110 -50.762789 177.738584 -66.218097 178.911382 0.000000 0.000000 0.000000 3.296802 -1.160867 0.910910 0.741072 7.659321 2.867451 -2.836906 2.291368 6.179163 -27.742140 6.555759 45.298474 -169.845904 62.601921 168.583112 0.000000 0.000000 0.000000 
8.840599 99.805283 -12.456591 0.000000 0.000000 0.000000 -0.696324 10.411327 4.085885 -22.892859 4.747854 10.175340 32.784164 -1.900098 4.473709 7.843338 7.007177 -20.127430 7.953677 -2.594291 -5.263270 0.000000 0.000000 0.000000 0.412011 12.871259 3.536377 -17.447455 -2.980486 -17.618280 33.544179 11.767905 1.053102 4.207680 -13.358884 16.888872 -15.842018 5.798064 -4.426010 0.000000 0.000000 0.000000 -1.716798 18.975539 3.114403 1.165417 -0.049003 -0.674313 3.139205 -2.021341 0.765768 0.008847 -0.217306 0.008402 0.000000 0.000000 0.000000 1.764441 -0.512316 0.821313 2.099130 7.428293 2.563021 -18.818013 12.866530 -6.848088 0.000000 0.000000 0.000000 1.901255 -1.873478 0.071479 4.411305 -6.463286 0.703374 0.317724 -2.530160 -0.136346 -10.243755 -23.606321 -51.097595 -179.987000 -67.162309 -179.474067 0.000000 0.000000 0.000000 3.110371 -0.957061 0.554102 0.387545 8.975921 3.483983 -3.120058 1.344007 5.628878 -26.970359 6.125474 47.198451 -169.341222 63.640479 168.713322 0.000000 0.000000 0.000000 
8.652819 96.721191 -12.868612 0.000000 0.000000 0.000000 0.067155 5.839319 3.992333 -26.106955 2.869913 12.600577 30.204456 -4.152364 4.231610 9.290222 5.407192 -23.928874 8.197655 -2.281705 -2.441290 0.000000 0.000000 0.000000 0.817182 8.721569 3.730594 -15.516066 -3.768842 -19.509952 33.597154 11.962153 1.655328 4.699795 -15.198957 19.726310 -18.843548 5.344737 -4.132797 0.000000 0.000000 0.000000 -1.550535 14.066203 2.812617 0.745447 1.273715 0.178862 3.161170 -1.778837 0.547085 -0.019158 -0.334428 0.121325 0.000000 0.000000 0.000000 1.952903 -0.239980 0.628219 1.361655 7.835246 2.313854 -18.037109 14.045433 -5.342274 0.000000 0.000000 0.000000 1.586617 -1.550010 -0.271333 4.266622 -6.338877 -0.172353 -0.518519 -3.402601 0.078782 -8.271952 -19.948597 -50.831890 -177.481386 -67.410935 -177.673110 0.000000 0.000000 0.000000 3.156143 -0.673839 0.288025 -0.072608 9.445265 4.236144 -3.473101 0.219981 5.144074 -26.667948 7.278463 48.273414 -168.260795 64.206510 168.633163 0.000000 0.000000 0.000000 
